HIERARCHY
ROOT Pelvis
{
	OFFSET 0.000000 0.000000 0.000000
	CHANNELS 6 Xposition Yposition Zposition Xrotation Yrotation Zrotation
	JOINT LeftUpLeg_virtual
	{
		OFFSET 0.000000 0.000000 0.000000
		CHANNELS 3 Xrotation Yrotation Zrotation
		JOINT LeftUpLeg
		{
			OFFSET 18.735201 -5.666702 -4.541200
			CHANNELS 3 Xrotation Yrotation Zrotation
			JOINT LeftLeg
			{
				OFFSET -0.021200 -31.938179 0.493100
				CHANNELS 3 Xrotation Yrotation Zrotation
				JOINT LeftFoot
				{
					OFFSET 0.021200 -31.938179 -4.336299
					CHANNELS 3 Xrotation Yrotation Zrotation
					JOINT LeftToeBase
					{
						OFFSET 0.943001 -26.722000 15.023500
						CHANNELS 3 Xrotation Yrotation Zrotation
						End Site
						{
							OFFSET 0 0 0
						}
					}
				}
			}
		}
	}
	JOINT RightUpLeg_virtual
	{
		OFFSET 0.000000 0.000000 0.000000
		CHANNELS 3 Xrotation Yrotation Zrotation
		JOINT RightUpLeg
		{
			OFFSET -18.735201 -5.666702 -4.541200
			CHANNELS 3 Xrotation Yrotation Zrotation
			JOINT RightLeg
			{
				OFFSET 0.018946 -31.938133 0.493100
				CHANNELS 3 Xrotation Yrotation Zrotation
				JOINT RightFoot
				{
					OFFSET -0.018946 -31.938126 -4.336299
					CHANNELS 3 Xrotation Yrotation Zrotation
					JOINT RightToeBase
					{
						OFFSET -0.943001 -26.722004 15.023500
						CHANNELS 3 Xrotation Yrotation Zrotation
						End Site
						{
							OFFSET 0 0 0
						}
					}
				}
			}
		}
	}
	JOINT Hips_virtual
	{
		OFFSET 0.000000 0.000000 0.000000
		CHANNELS 3 Xrotation Yrotation Zrotation
		JOINT Hips
		{
			OFFSET -0.000000 -0.000000 -0.000000
			CHANNELS 3 Xrotation Yrotation Zrotation
			JOINT Spine
			{
				OFFSET 0.000000 10.199997 -0.299500
				CHANNELS 3 Xrotation Yrotation Zrotation
				JOINT Spine1
				{
					OFFSET 0.000000 11.900002 -1.516600
					CHANNELS 3 Xrotation Yrotation Zrotation
					JOINT Spine2
					{
						OFFSET 0.000000 13.600006 -2.842500
						CHANNELS 3 Xrotation Yrotation Zrotation
						JOINT Neck_virtual
						{
							OFFSET 0.000000 0.000000 0.000000
							CHANNELS 3 Xrotation Yrotation Zrotation
							JOINT Neck
							{
								OFFSET 0.000000 9.624100 -2.890100
								CHANNELS 3 Xrotation Yrotation Zrotation
								JOINT Head
								{
									OFFSET 0.000000 14.068802 -1.351900
									CHANNELS 3 Xrotation Yrotation Zrotation
									End Site
									{
										OFFSET 0 0 0
									}
								}
							}
						}
						JOINT LeftShoulder_virtual
						{
							OFFSET 0.000000 0.000000 0.000000
							CHANNELS 3 Xrotation Yrotation Zrotation
							JOINT LeftShoulder
							{
								OFFSET 15.263000 10.923401 -0.547700
								CHANNELS 3 Xrotation Yrotation Zrotation
								JOINT LeftArm
								{
									OFFSET 25.438599 -2.830597 -13.032500
									CHANNELS 3 Xrotation Yrotation Zrotation
									JOINT LeftForeArm
									{
										OFFSET 29.960503 0.000000 0.000000
										CHANNELS 3 Xrotation Yrotation Zrotation
										JOINT LeftHand
										{
											OFFSET 27.849251 0.000000 0.000000
											CHANNELS 3 Xrotation Yrotation Zrotation
											End Site
											{
												OFFSET 0 0 0
											}
										}
									}
								}
							}
						}
						JOINT RightShoulder_virtual
						{
							OFFSET 0.000000 0.000000 0.000000
							CHANNELS 3 Xrotation Yrotation Zrotation
							JOINT RightShoulder
							{
								OFFSET -15.263000 10.923401 -0.547700
								CHANNELS 3 Xrotation Yrotation Zrotation
								JOINT RightArm
								{
									OFFSET -25.438599 -2.830597 -13.032500
									CHANNELS 3 Xrotation Yrotation Zrotation
									JOINT RightForeArm
									{
										OFFSET -29.960503 0.000000 0.000000
										CHANNELS 3 Xrotation Yrotation Zrotation
										JOINT RightHand
										{
											OFFSET -27.849251 0.000000 0.000000
											CHANNELS 3 Xrotation Yrotation Zrotation
											End Site
											{
												OFFSET 0 0 0
											}
										}
									}
								}
							}
						}
					}
				}
			}
		}
	}
}
MOTION
Frames: 6
Frame Time: 0.03333333
-2.609165 89.554657 3.884800 0.000000 0.000000 0.000000 5.044402 -14.113915 9.112836 -31.665956 -7.647206 -13.838504 4.349354 -5.124873 -6.452493 23.570778 -26.783941 6.151524 0.000000 0.000000 0.000000 5.044402 -14.113915 9.112836 -0.711439 -14.897852 -13.458847 38.462540 6.285741 -5.754474 -12.633862 -1.306565 9.831151 0.000000 0.000000 0.000000 5.044402 -14.113915 9.112836 0.000000 -0.000001 0.000001 1.692740 4.765783 1.617633 5.177708 9.319221 2.133655 0.000000 0.000000 0.000000 5.034877 9.321734 2.400953 -0.568285 -0.443309 -0.506789 0.000000 0.000000 0.000000 5.034877 9.321734 2.400953 0.683995 -0.873511 -14.226768 -18.744839 -25.288451 -72.307743 0.000002 -68.920700 -0.000001 0.000000 0.000000 0.000000 5.034877 9.321734 2.400953 -0.133326 13.109080 18.148137 -38.704961 64.841438 69.860295 0.000006 37.971443 -0.000005 0.000000 0.000000 0.000000 
-2.583461 89.572723 3.861330 0.000000 0.000000 0.000000 5.096075 -14.178431 8.954954 -31.768436 -7.444069 -13.723634 4.531150 -5.343401 -6.374406 23.590644 -26.763342 6.171286 0.000000 0.000000 0.000000 5.096075 -14.178431 8.954954 -0.190014 -15.005236 -13.225862 37.733001 6.407873 -5.607158 -12.995220 -1.292553 9.647843 0.000000 0.000000 0.000000 5.096075 -14.178431 8.954954 0.000000 0.000000 0.000000 1.757476 4.855736 1.619657 5.160748 9.282536 2.112638 0.000000 0.000000 0.000000 5.022806 9.284442 2.374299 -0.621321 -0.463583 -0.497408 0.000000 0.000000 0.000000 5.022806 9.284442 2.374299 0.681857 -0.881335 -14.238711 -18.870674 -25.494067 -72.321827 -0.000013 -68.978012 -0.000016 0.000000 0.000000 0.000000 5.022806 9.284442 2.374299 -0.124891 13.084223 18.116892 -38.677954 64.587683 69.785040 -0.000002 38.471587 0.000016 0.000000 0.000000 0.000000 
-2.559477 89.584816 3.836937 0.000000 0.000000 0.000000 5.151856 -14.242503 8.789766 -32.074346 -7.207784 -13.589860 5.169050 -5.554004 -6.324514 23.283319 -26.771025 6.182833 0.000000 0.000000 0.000000 5.151856 -14.242503 8.789766 0.364709 -15.113445 -12.971293 36.963140 6.555314 -5.455399 -13.372284 -1.300410 9.449766 0.000000 0.000000 0.000000 5.151856 -14.242503 8.789766 0.000000 -0.000001 0.000000 1.819988 4.952533 1.635954 5.142801 9.248735 2.093728 0.000000 0.000000 0.000000 5.009902 9.249994 2.349702 -0.676563 -0.484679 -0.489894 0.000000 0.000000 0.000000 5.009902 9.249994 2.349702 0.679173 -0.891283 -14.251472 -19.028043 -25.737567 -72.345985 0.000092 -69.038712 0.000100 0.000000 0.000000 0.000000 5.009902 9.249994 2.349702 -0.114677 13.054872 18.076914 -38.651801 64.286348 69.702818 -0.000012 39.069686 0.000015 0.000000 0.000000 0.000000 
-2.537295 89.590355 3.812313 0.000000 0.000000 0.000000 5.210756 -14.306893 8.617702 -32.384048 -6.991707 -13.451331 5.772714 -5.745451 -6.279308 23.041230 -26.773056 6.214703 0.000000 0.000000 0.000000 5.210756 -14.306893 8.617702 0.941690 -15.211840 -12.711510 36.164335 6.722920 -5.275786 -13.751327 -1.322942 9.232561 0.000000 0.000000 0.000000 5.210756 -14.306893 8.617702 0.000000 0.000000 0.000000 1.880393 5.055768 1.665624 5.123978 9.217474 2.076672 0.000000 0.000000 0.000000 4.996254 9.218044 2.326918 -0.733542 -0.506457 -0.483842 0.000000 0.000000 0.000000 4.996254 9.218044 2.326918 0.676444 -0.901443 -14.262931 -19.187203 -25.974199 -72.374918 -0.000060 -69.092677 -0.000075 0.000000 0.000000 0.000000 4.996254 9.218044 2.326918 -0.104594 13.026401 18.035938 -38.630986 63.992876 69.627905 0.000007 39.655371 0.000004 0.000000 0.000000 0.000000 
-2.516632 89.589607 3.788383 0.000000 0.000000 0.000000 5.271749 -14.372079 8.439587 -32.730519 -6.785668 -13.317575 6.431337 -5.920551 -6.221845 22.787499 -26.777989 6.251636 0.000000 0.000000 0.000000 5.271749 -14.372079 8.439587 1.540518 -15.318687 -12.426617 35.335045 6.904856 -5.118350 -14.129456 -1.357586 9.019541 0.000000 0.000000 0.000000 5.271749 -14.372079 8.439587 0.000000 0.000000 0.000000 1.938847 5.164732 1.707406 5.104402 9.188401 2.061217 0.000000 0.000000 0.000000 4.981968 9.188253 2.305713 -0.791920 -0.528773 -0.478971 0.000000 0.000000 0.000000 4.981968 9.188253 2.305713 0.673632 -0.911968 -14.273170 -19.350580 -26.206748 -72.409718 -0.000049 -69.140229 -0.000052 0.000000 0.000000 0.000000 4.981968 9.188253 2.305713 -0.094519 12.998461 17.993314 -38.614918 63.703665 69.559316 -0.000033 40.235869 0.000031 0.000000 0.000000 0.000000 
-2.497125 89.584251 3.765306 0.000000 0.000000 0.000000 5.333769 -14.438304 8.257102 -33.124905 -6.587450 -13.178707 7.182744 -6.078481 -6.169318 22.474360 -26.788915 6.291252 0.000000 0.000000 0.000000 5.333769 -14.438304 8.257102 2.159514 -15.430659 -12.129506 34.472644 7.100134 -4.966079 -14.499503 -1.397626 8.806260 0.000000 0.000000 0.000000 5.333769 -14.438304 8.257102 0.000000 0.000000 0.000000 1.995564 5.278398 1.759162 5.084190 9.161173 2.047113 0.000000 0.000000 0.000000 4.967150 9.160285 2.285805 -0.851245 -0.551452 -0.474840 0.000000 0.000000 0.000000 4.967150 9.160285 2.285805 0.670718 -0.922947 -14.282417 -19.519962 -26.438158 -72.450651 0.000066 -69.182481 0.000074 0.000000 0.000000 0.000000 4.967150 9.160285 2.285805 -0.084332 12.970675 17.948707 -38.602938 63.415083 69.495713 -0.000010 40.818303 0.000015 0.000000 0.000000 0.000000 
